<?xml version="1.0" encoding="UTF-8" standalone="no"?>
<svg
   xmlns:dc="http://purl.org/dc/elements/1.1/"
   xmlns:cc="http://creativecommons.org/ns#"
   xmlns:rdf="http://www.w3.org/1999/02/22-rdf-syntax-ns#"
   xmlns:svg="http://www.w3.org/2000/svg"
   xmlns="http://www.w3.org/2000/svg"
   xmlns:sodipodi="http://sodipodi.sourceforge.net/DTD/sodipodi-0.dtd"
   xmlns:inkscape="http://www.inkscape.org/namespaces/inkscape"
   viewBox="0 0 100 50"
   version="1.1"
   id="svg14"
   sodipodi:docname="activityMainBtnSettings.svg"
   inkscape:version="0.92.4 (5da689c313, 2019-01-14)">
  <metadata
     id="metadata20">
    <rdf:RDF>
      <cc:Work
         rdf:about="">
        <dc:format>image/svg+xml</dc:format>
        <dc:type
           rdf:resource="http://purl.org/dc/dcmitype/StillImage" />
      </cc:Work>
    </rdf:RDF>
  </metadata>
  <defs
     id="defs18" />
  <sodipodi:namedview
     pagecolor="#ffffff"
     bordercolor="#666666"
     borderopacity="1"
     objecttolerance="10"
     gridtolerance="10"
     guidetolerance="10"
     inkscape:pageopacity="0"
     inkscape:pageshadow="2"
     inkscape:window-width="1280"
     inkscape:window-height="961"
     id="namedview16"
     showgrid="false"
     inkscape:zoom="8.2"
     inkscape:cx="42.898916"
     inkscape:cy="8.4376718"
     inkscape:window-x="-8"
     inkscape:window-y="-8"
     inkscape:window-maximized="1"
     inkscape:current-layer="svg14" />
  <rect
     style="fill:#666666"
     x="1"
     y="1"
     width="96"
     height="46"
     rx="10"
     ry="10"
     id="rect2" />
  <text
     x="64.311653"
     y="27.234375"
     alignment-baseline="middle"
     id="text12"
     style="font-style:normal;font-variant:normal;font-weight:normal;font-stretch:normal;font-size:10px;font-family:sans-serif;-inkscape-font-specification:'sans-serif, Normal';font-variant-ligatures:normal;font-variant-caps:normal;font-variant-numeric:normal;font-feature-settings:normal;text-align:center;writing-mode:lr-tb;text-anchor:middle;fill:#ffffff">
	 Настройки
  </text>
  <path
     id="path2989"
     style="fill:#ffffff;stroke-width:0.5608294;opacity:1;stroke:none"
     inkscape:connector-curvature="0"
     d="m 20.612681,10.66343 c -0.774195,0 -1.533931,0.06918 -2.272285,0.19421 l -0.360091,3.793136 c -0.763617,0.211484 -1.486331,0.50719 -2.162345,0.886052 l -2.950494,-2.421519 c -1.246365,0.876492 -2.33727,1.954064 -3.2192673,3.192075 l 2.4433283,2.931348 c -0.380881,0.670883 -0.685129,1.390737 -0.89792,2.148437 l -3.8116171,0.35807 c -0.1259136,0.733829 -0.1954674,1.48823 -0.1954674,2.257669 0,0.77078 0.06912,1.522665 0.1954674,2.257669 l 3.8116171,0.358087 c 0.212819,0.757699 0.517046,1.477554 0.89792,2.148436 l -2.4371955,2.931347 c 0.8804215,1.234826 1.9640695,2.317541 3.2068895,3.1923 l 2.956401,-2.427612 c 0.676464,0.379213 1.398165,0.680554 2.162345,0.892145 l 0.36039,3.793136 c 0.738354,0.125042 1.498089,0.188155 2.272285,0.188155 0.774195,0 1.527853,-0.06311 2.266209,-0.188155 L 23.23924,33.35528 c 0.764179,-0.211574 1.48588,-0.512932 2.162345,-0.892145 l 2.956402,2.427612 c 1.242763,-0.874815 2.326412,-1.95753 3.20689,-3.1923 L 29.12768,28.767099 c 0.38088,-0.670881 0.685129,-1.390737 0.897921,-2.148436 l 3.81156,-0.358087 c 0.126347,-0.735004 0.195468,-1.486889 0.195468,-2.257669 0,-0.769495 -0.06954,-1.523896 -0.195468,-2.257669 l -3.81156,-0.35807 c -0.212819,-0.7577 -0.517046,-1.477554 -0.897921,-2.148437 l 2.443329,-2.931348 c -0.882222,-1.23801 -1.973185,-2.315582 -3.219437,-3.192074 l -2.950325,2.421519 C 24.725233,15.157944 24.00252,14.862255 23.238902,14.650776 L 22.878249,10.85764 c -0.738355,-0.125031 -1.492014,-0.19421 -2.26621,-0.19421 z m 0,8.260119 c 2.823224,0 5.106538,2.274719 5.106538,5.079783 0,2.805064 -2.283314,5.079785 -5.106538,5.079785 -2.823223,0 -5.11267,-2.27472 -5.11267,-5.079785 0,-2.805065 2.289447,-5.079783 5.11267,-5.079783 z" />
</svg>
